 
http://www.imdb.com/title/tt1702439/


Plot: A young woman with a mysterious past lands in Southport, North Carolina where her bond with a widower forces her to confront the dark secret that haunts her. 



Director:
 Lasse Hallström 

Writers:
 Leslie Bohem (screenplay), Dana Stevens (screenplay)

Stars:
 Julianne Hough, Josh Duhamel, Cobie Smulders 

Genres:
  Drama |  Mystery |  Romance |  Thriller 

Country:
 USA 

Language:
 English

Format                                   : AVI
Format/Info                              : Audio Video Interleave
Format profile                           : OpenDML
Format settings                          : rec
File size                                : 792 MiB
Duration                                 : 1h 50mn
Overall bit rate                         : 998 Kbps
Writing application                      : AVI-Mux GUI 1.17.8.3, Feb 16 201019:42:50

Video
ID                                       : 0
Format                                   : MPEG-4 Visual
Format profile                           : Advanced Simple@L5
Format settings, BVOP                    : 1
Format settings, QPel                    : No
Format settings, GMC                     : No warppoints
Format settings, Matrix                  : Custom
Codec ID                                 : XVID
Codec ID/Hint                            : XviD
Duration                                 : 1h 50mn
Bit rate                                 : 801 Kbps
Width                                    : 576 pixels
Height                                   : 320 pixels
Display aspect ratio                     : 16:9
Frame rate                               : 25.000 fps
Color space                              : YUV
Chroma subsampling                       : 4:2:0
Bit depth                                : 8 bits
Scan type                                : Progressive
Compression mode                         : Lossy
Bits/(Pixel*Frame)                       : 0.174
Stream size                              : 635 MiB (80%)
Writing library                          : XviD 1.2.1 (UTC 2008-12-04)

Audio
ID                                       : 1
Format                                   : AC-3
Format/Info                              : Audio Coding 3
Mode extension                           : CM (complete main)
Format settings, Endianness              : Big
Codec ID                                 : 2000
Duration                                 : 1h 50mn
Bit rate mode                            : Constant
Bit rate                                 : 192 Kbps
Channel(s)                               : 2 channels
Channel positions                        : Front: L R
Sampling rate                            : 48.0 KHz
Bit depth                                : 16 bits
Compression mode                         : Lossy
Stream size                              : 152 MiB (19%)
Alignment                                : Aligned on interleaves
Interleave, duration                     : 64 ms (1.60 video frames)
Interleave, preload duration             : 192 ms
Title                                    : AUDIO-FANTA


 
http://bayimg.com/kAlEPaAEm 
http://bayimg.com/laLEAAaEm 
http://bayimg.com/LaleBAAeM